<svg xmlns="http://www.w3.org/2000/svg" xmlns:xlink="http://www.w3.org/1999/xlink" width="464.06" height="321.775" viewBox="0 0 464.06 321.775">
  <defs>
    <clipPath id="clip-path">
      <path id="Path_13" data-name="Path 13" d="M-10312.546-10528.775V-10450H-10533v181.715h-134.061v-260.49Z" transform="translate(11414 12792)" fill="#fff"/>
    </clipPath>
  </defs>
  <g id="Command_Line_Utility_Illustration" data-name="Command Line Utility Illustration" transform="translate(-746.939 -2263.225)">
    <g id="Group_28" data-name="Group 28" transform="translate(148.471 101.328)">
      <line id="Line_2" data-name="Line 2" x2="327.775" transform="translate(733.292 2276.521)" fill="none" stroke="#000" stroke-width="2"/>
      <g id="Group_26" data-name="Group 26" transform="translate(732.529 2240.338)">
        <g id="Rectangle_13" data-name="Rectangle 13" transform="translate(0 0.334)" fill="none" stroke="#000" stroke-width="2">
          <rect width="330" height="243" stroke="none"/>
          <rect x="1" y="1" width="328" height="241" fill="none"/>
        </g>
      </g>
    </g>
    <g id="Mask_Group_6" data-name="Mask Group 6" clip-path="url(#clip-path)">
      <g id="Group_29" data-name="Group 29">
        <g id="Ellipse_22" data-name="Ellipse 22" transform="translate(789 2286)" fill="none" stroke="#000" stroke-width="2">
          <circle cx="6" cy="6" r="6" stroke="none"/>
          <circle cx="6" cy="6" r="5" fill="none"/>
        </g>
        <line id="Line_2-2" data-name="Line 2" x2="327.775" transform="translate(756.763 2310.849)" fill="none" stroke="#000" stroke-width="2"/>
        <path id="Path_13-2" data-name="Path 13" d="M2,2V241H328V2H2M0,0H330V243H0Z" transform="translate(756 2275)"/>
        <g id="Ellipse_21" data-name="Ellipse 21" transform="translate(771 2286)" fill="none" stroke="#000" stroke-width="2">
          <circle cx="6" cy="6" r="6" stroke="none"/>
          <circle cx="6" cy="6" r="5" fill="none"/>
        </g>
        <g id="Ellipse_23" data-name="Ellipse 23" transform="translate(807 2286)" fill="none" stroke="#000" stroke-width="2">
          <circle cx="6" cy="6" r="6" stroke="none"/>
          <circle cx="6" cy="6" r="5" fill="none"/>
        </g>
        <path id="Path_12" data-name="Path 12" d="M0,0V205.818H0" transform="translate(830.19 2310.849)" fill="none" stroke="#000" stroke-width="2"/>
      </g>
    </g>
  </g>
</svg>
