<svg xmlns="http://www.w3.org/2000/svg" width="358" height="299" viewBox="0 0 358 299">
  <g id="Full_SDK_Illustration" data-name="Full SDK Illustration" transform="translate(-799 -1682)">
    <g id="Ellipse_16" data-name="Ellipse 16" transform="translate(1069 1682)" fill="none" stroke="#000" stroke-width="2">
      <circle cx="44" cy="44" r="44" stroke="none"/>
      <circle cx="44" cy="44" r="43" fill="none"/>
    </g>
    <g id="Ellipse_17" data-name="Ellipse 17" transform="translate(799 1682)" fill="none" stroke="#000" stroke-width="2">
      <circle cx="44" cy="44" r="44" stroke="none"/>
      <circle cx="44" cy="44" r="43" fill="none"/>
    </g>
    <g id="Ellipse_18" data-name="Ellipse 18" transform="translate(936 1881)" fill="none" stroke="#000" stroke-width="2">
      <circle cx="44" cy="44" r="44" stroke="none"/>
      <circle cx="44" cy="44" r="43" fill="none"/>
    </g>
    <g id="Group_22" data-name="Group 22">
      <path id="Path_5" data-name="Path 5" d="M-9082.708-11320.2l6.118-3.2-6.118-4.016Z" transform="translate(-488.508 16207.615) rotate(45)" stroke="#000" stroke-width="1"/>
      <path id="Path_4" data-name="Path 4" d="M-9063.829-11120.237s31.356-58.869,19.265-129.562" transform="translate(4539.954 15799.227) rotate(25)" fill="none" stroke="#000" stroke-width="2" stroke-dasharray="3"/>
    </g>
    <g id="Group_23" data-name="Group 23" transform="translate(856.951 1772.905)">
      <path id="Path_5-2" data-name="Path 5" d="M0,0,6.118,3.2,0,7.219Z" transform="translate(9.431 7.678) rotate(135)" stroke="#000" stroke-width="1"/>
      <path id="Path_4-2" data-name="Path 4" d="M0,0S31.356,58.869,19.265,129.563" transform="translate(78.117 117.424) rotate(155)" fill="none" stroke="#000" stroke-width="2" stroke-dasharray="3"/>
    </g>
    <g id="Group_24" data-name="Group 24">
      <path id="Path_3" data-name="Path 3" d="M41.761,29.988a10.889,10.889,0,0,0,0-6.924l4.795-3.753-4.795-7.777L36.421,14c-2.012-2.026-3.1-2.861-5.863-3.581l-.547-5.935H20.277l-.313,5.456c-2.762.721-4.044,1.743-6.055,3.77L8.463,11.295,3.547,19.6l4.778,3.537a11.545,11.545,0,0,0,0,7.132L3.878,33.157l4.585,8.395,5.282-2.707A11.411,11.411,0,0,0,19.822,42.5l.331,5.742h9.86l.436-5.742A11.894,11.894,0,0,0,36.7,38.845l5.057,2.372,4.65-7.951Zm-11.748-27a1.229,1.229,0,0,1,1.229,1.173l.438,5a18.315,18.315,0,0,1,5.024,2.9l4.549-2.122a1.229,1.229,0,0,1,1.628.479l4.93,8.532a1.229,1.229,0,0,1-.4,1.65L43.3,23.48a18.287,18.287,0,0,1,0,5.8l4.114,2.877a1.229,1.229,0,0,1,.4,1.652l-4.93,8.5a1.229,1.229,0,0,1-1.628.479L36.7,40.668a18.314,18.314,0,0,1-5.024,2.9l-.438,5a1.229,1.229,0,0,1-1.229,1.17h-9.86a1.23,1.23,0,0,1-1.229-1.17l-.438-5a18.326,18.326,0,0,1-5.024-2.9L8.913,42.79a1.229,1.229,0,0,1-1.63-.477L2.355,33.807a1.23,1.23,0,0,1,.4-1.65l4.114-2.879a18.319,18.319,0,0,1,0-5.8L2.756,20.6a1.229,1.229,0,0,1-.4-1.647L7.28,10.416a1.229,1.229,0,0,1,1.63-.479l4.549,2.122a18.32,18.32,0,0,1,5.024-2.9l.438-5A1.229,1.229,0,0,1,20.15,2.985h9.863Z" transform="translate(954.228 1899.145)"/>
      <g id="Ellipse_19" data-name="Ellipse 19" transform="translate(967 1913)" fill="none" stroke="#000" stroke-width="1.5">
        <circle cx="12" cy="12" r="12" stroke="none"/>
        <circle cx="12" cy="12" r="11.25" fill="none"/>
      </g>
    </g>
    <g id="Rectangle_10" data-name="Rectangle 10" transform="translate(1091 1721)" fill="none" stroke="#000" stroke-linejoin="round" stroke-width="1.5">
      <rect width="44" height="24" stroke="none"/>
      <rect x="0.75" y="0.75" width="42.5" height="22.5" fill="none"/>
    </g>
    <g id="Rectangle_11" data-name="Rectangle 11" transform="translate(1094 1712)" fill="none" stroke="#000" stroke-linejoin="round" stroke-width="1.5">
      <rect width="38" height="5" stroke="none"/>
      <rect x="0.75" y="0.75" width="36.5" height="3.5" fill="none"/>
    </g>
    <g id="Rectangle_12" data-name="Rectangle 12" transform="translate(1099 1703)" fill="none" stroke="#000" stroke-linejoin="round" stroke-width="1.5">
      <rect width="28" height="5" stroke="none"/>
      <rect x="0.75" y="0.75" width="26.5" height="3.5" fill="none"/>
    </g>
    <path id="Path_8" data-name="Path 8" d="M-10215.624-11063.693l5.014,4.666,12.432-11.785" transform="translate(11320 12797.656)" fill="none" stroke="#000" stroke-width="1.5"/>
    <g id="Group_25" data-name="Group 25" transform="translate(818.291 1704)">
      <path id="Path_9" data-name="Path 9" d="M36.194,13H24.839A2.839,2.839,0,0,0,22,15.839v21.29a2.839,2.839,0,0,0,2.839,2.839H36.194a2.839,2.839,0,0,0,2.839-2.839V15.839A2.839,2.839,0,0,0,36.194,13Zm1,1.839V31.452H23.839V14.839ZM23.839,38.129V32.723H37.194v5.406Z" transform="translate(8.387 3.774)"/>
      <path id="Path_10" data-name="Path 10" d="M27.549,30.549H3.839V5.839H39.9v8.1h1.839v-7.1A2.839,2.839,0,0,0,38.9,4H4.839A2.839,2.839,0,0,0,2,6.839v22.71a2.839,2.839,0,0,0,2.839,2.839h22.71Z"/>
      <path id="Path_11" data-name="Path 11" d="M25.032,26H9.419a1.7,1.7,0,0,0-1,.309.879.879,0,0,0,0,1.494,1.7,1.7,0,0,0,1,.309H25.032Z" transform="translate(2.516 9.952)"/>
    </g>
    <g id="Ellipse_20" data-name="Ellipse 20" transform="translate(924 1869)" fill="none" stroke="#000" stroke-width="2" stroke-dasharray="3">
      <circle cx="56" cy="56" r="56" stroke="none"/>
      <circle cx="56" cy="56" r="55" fill="none"/>
    </g>
  </g>
</svg>
