<svg xmlns="http://www.w3.org/2000/svg" width="461.839" height="349.172" viewBox="0 0 461.839 349.172">
  <g id="Header_Hero_illustration" data-name="Header Hero illustration" transform="translate(1.002 1.729)">
    <path id="Combined_Shape" data-name="Combined Shape" d="M0,246.72.419,98.957l95.705,55.255L96.375,66l95.75,55.282L192.375,33l95.75,55.281L288.375,0l171.46,98.993-.419,147.763-95.749-55.281-.25,88.281-95.75-55.281-.25,88.281L171.71,257.5l-.25,88.213Z" transform="translate(0 0)" fill="none" stroke="#323232" stroke-miterlimit="10" stroke-width="2"/>
    <path id="Fill_7" data-name="Fill 7" d="M.169,0,0,59.585l75.863,43.8" transform="translate(95.978 154.157)" fill="none" stroke="#323232" stroke-miterlimit="10" stroke-width="2" stroke-dasharray="3"/>
    <path id="Fill_7-2" data-name="Fill 7" d="M.169,0,0,59.585l75.863,43.8" transform="translate(191.978 121.157)" fill="none" stroke="#323232" stroke-miterlimit="10" stroke-width="2" stroke-dasharray="3"/>
    <path id="Fill_7-3" data-name="Fill 7" d="M.169,0,0,59.585l75.863,43.8" transform="translate(287.978 88.157)" fill="none" stroke="#323232" stroke-miterlimit="10" stroke-width="2" stroke-dasharray="3"/>
    <path id="Fill_7-4" data-name="Fill 7" d="M.169,0,0,59.585l75.863,43.8" transform="translate(363.841 191.542) rotate(180)" fill="none" stroke="#323232" stroke-miterlimit="10" stroke-width="2"/>
    <path id="Fill_7-5" data-name="Fill 7" d="M.169,0,0,59.585l75.863,43.8" transform="translate(267.841 224.542) rotate(180)" fill="none" stroke="#323232" stroke-miterlimit="10" stroke-width="2"/>
    <path id="Fill_7-6" data-name="Fill 7" d="M.169,0,0,59.585l75.863,43.8" transform="translate(171.841 257.542) rotate(180)" fill="none" stroke="#323232" stroke-miterlimit="10" stroke-width="2"/>
  </g>
</svg>
